<svg width="379.1599853515625px" height="141.5599853515625px" xmlns="http://www.w3.org/2000/svg" viewBox="60.420007324218744 4.220007324218756 379.1599853515625 141.5599853515625" style="background: rgba(0, 0, 0, 0) none repeat scroll 0% 0%;" preserveAspectRatio="xMidYMid"><defs><filter id="editing-extrude-glow"><feFlood flood-color="#333333" result="flood-1"></feFlood><feMorphology operator="erode" radius="1" in="SourceAlpha" result="erode"></feMorphology><feComposite operator="in" in="flood-1" in2="erode" result="comp1"></feComposite><feConvolveMatrix order="2,2" divisor="1" in="comp1" result="convolve" kernelMatrix="0 0 1 1"></feConvolveMatrix><feOffset dx="-2" dy="0" in="convolve" result="extrude"></feOffset><feComposite operator="in" in="flood-1" in2="extrude" result="comp-extrude"></feComposite><feFlood flood-color="#e0cfcf" result="flood-2"></feFlood><feComposite operator="in" in="flood-2" in2="SourceAlpha" result="comp2"></feComposite><feMorphology operator="dilate" radius="1" in="comp2" result="dilate"></feMorphology><feOffset dx="-3" dy="0" in="dilate" result="offset"></feOffset><feGaussianBlur in="offset" stdDeviation="5.8" result="blur"></feGaussianBlur><feComponentTransfer in="blur" result="shadow"><feFuncA type="linear" slope="0.8" intercept="-0.2"></feFuncA></feComponentTransfer><feMerge><feMergeNode in="shadow"></feMergeNode><feMergeNode in="comp-extrude"></feMergeNode><feMergeNode in="SourceGraphic"></feMergeNode></feMerge></filter></defs><g filter="url(#editing-extrude-glow)"><g transform="translate(119.62971186637878, 101.6349983215332)"><path d="M49.27-27.32L49.27-27.32L48.78-29.19L48.78-29.19Q48.78-29.74 49.34-29.74L49.34-29.74L49.34-29.74Q49.54-29.74 49.89-29.53L49.89-29.53L49.89-29.53Q51.47-28.36 51.47-26.43L51.47-26.43L51.47-26.43Q51.47-24.50 48.99-22.67L48.99-22.67L48.99-22.67Q46.51-20.84 42.71-20.84L42.71-20.84L42.71-20.84Q41.54-20.84 40.37-21.05L40.37-21.05L40.37-21.05Q35.60-12.28 28.77-4.90L28.77-4.90L28.77-4.90Q19.67 4.76 12.21 4.76L12.21 4.76L12.21 4.76Q1.45 4.76 1.45-7.94L1.45-7.94L1.45-7.94Q1.45-18.42 7.04-24.84L7.04-24.84L7.04-24.84Q11.73-30.36 17.80-30.36L17.80-30.36L17.80-30.36Q19.39-30.36 21.05-29.81L21.05-29.81L21.05-29.81Q25.12-28.22 25.12-23.08L25.12-23.08L25.12-23.08Q25.12-17.94 20.91-12.35L20.91-12.35L20.91-12.35Q16.70-6.76 12.28-6.76L12.28-6.76L12.28-6.76Q7.31-6.76 7.31-12.14L7.31-12.14L7.31-12.14Q7.31-13.66 7.97-15.32L7.97-15.32L7.97-15.32Q8.63-16.97 9.45-16.97L9.45-16.97L9.45-16.97Q10.07-16.97 10.07-16.35L10.07-16.35L10.07-16.35Q10.07-16.01 9.45-14.63L9.45-14.63L9.45-14.63Q8.83-13.25 8.83-12.18L8.83-12.18L8.83-12.18Q8.83-11.11 9.97-10.18L9.97-10.18L9.97-10.18Q11.11-9.25 12.35-9.25L12.35-9.25L12.35-9.25Q16.42-9.25 19.91-14.25L19.91-14.25L19.91-14.25Q23.39-19.25 23.39-24.01L23.39-24.01L23.39-24.01Q23.39-27.67 20.77-28.84L20.77-28.84L20.77-28.84Q19.87-29.19 18.91-29.19L18.91-29.19L18.91-29.19Q14.01-29.19 9.11-22.43L9.11-22.43L9.11-22.43Q4.35-15.59 4.35-7.45L4.35-7.45L4.35-7.45Q4.35-2.97 6.28-0.14L6.28-0.14L6.28-0.14Q8.28 2.76 11.80 2.76L11.80 2.76L11.80 2.76Q20.91 2.76 35.54-22.01L35.54-22.01L35.54-22.01Q27.95-24.29 27.95-30.98L27.95-30.98L27.95-30.98Q27.95-39.88 36.98-45.20L36.98-45.20L36.98-45.20Q42.71-48.51 48.09-48.51L48.09-48.51L48.09-48.51Q52.30-48.51 55.68-47.13L55.68-47.13L55.68-47.13Q60.44-45.26 60.44-41.47L60.44-41.47L60.44-41.47Q60.44-40.64 60.06-39.88L60.06-39.88L60.06-39.88Q59.69-39.12 59.27-39.12L59.27-39.12L59.27-39.12Q58.37-40.02 57.13-40.02L57.13-40.02L57.13-40.02Q51.27-40.02 41.06-22.56L41.06-22.56L41.06-22.56Q41.61-22.49 42.23-22.49L42.23-22.49L42.23-22.49Q44.57-22.49 46.92-23.87L46.92-23.87L46.92-23.87Q49.27-25.25 49.27-27.32ZM49.75-46.58L49.75-46.58L49.75-46.58Q46.23-46.58 41.64-44.54L41.64-44.54L41.64-44.54Q37.05-42.50 34.33-38.57L34.33-38.57L34.33-38.57Q31.60-34.64 31.60-29.67L31.60-29.67L31.60-29.67Q31.60-24.70 36.71-23.74L36.71-23.74L36.71-23.74Q40.50-29.95 46.51-36.12L46.51-36.12L46.51-36.12Q52.51-42.30 56.51-42.30L56.51-42.30L56.51-42.30Q57.55-42.30 58.31-41.81L58.31-41.81L58.31-41.81Q58.24-43.75 55.61-45.20L55.61-45.20L55.61-45.20Q53.27-46.58 49.75-46.58ZM45.20-18.56L45.20-18.56L45.20-18.56Q44.78-18.56 44.78-18.84L44.78-18.84L44.78-18.84Q44.78-19.11 46.64-21.49L46.64-21.49L46.64-21.49Q48.51-23.87 48.51-24.91L48.51-24.91L48.51-24.91Q48.51-25.94 47.58-26.77L47.58-26.77L47.58-26.77Q46.64-27.60 46.64-28.01L46.64-28.01L46.64-28.01Q46.64-30.08 48.65-30.08L48.65-30.08L48.65-30.08Q49.68-30.08 50.61-29.43L50.61-29.43L50.61-29.43Q51.54-28.77 51.54-27.81L51.54-27.81L51.54-27.81Q51.54-24.84 48.92-21.70L48.92-21.70L48.92-21.70Q46.30-18.56 45.20-18.56ZM81.70-0.83L81.70-0.83L81.70-0.83Q77.00-0.83 77.00-5.18L77.00-5.18L77.00-5.18Q77.00-7.66 79.21-11.97L79.21-11.97L79.21-11.97Q81.42-16.28 83.84-19.25L83.84-19.25L83.84-19.25Q79.56-17.18 73.97-11.76L73.97-11.76L73.97-11.76Q68.38-6.35 66.17-0.41L66.17-0.41L66.17-0.41Q65.83 0.14 65.00 0.14L65.00 0.14L65.00 0.14Q63.34 0.14 63.34-1.73L63.34-1.73L63.34-1.73Q64.03-5.52 66.45-10.42L66.45-10.42L66.45-10.42Q67.21-12.01 70.93-19.67L70.93-19.67L70.93-19.67Q65.55-16.15 61.79-12.11L61.79-12.11L61.79-12.11Q58.03-8.07 54.82-4.00L54.82-4.00L54.82-4.00Q51.61 0.07 51.20 0.07L51.20 0.07L51.20 0.07Q50.30 0.07 49.65-0.76L49.65-0.76L49.65-0.76Q48.99-1.59 48.99-2.42L48.99-2.42L48.99-2.42Q48.99-3.66 52.58-11.52L52.58-11.52L48.44-7.18L48.44-7.18Q46.92-5.66 46.54-5.66L46.54-5.66L46.54-5.66Q46.16-5.66 46.16-6.11L46.16-6.11L46.16-6.11Q46.16-6.56 46.71-7.11L46.71-7.11L46.71-7.11Q49.27-9.66 51.27-12.21L51.27-12.21L51.27-12.21Q53.27-14.77 57.89-21.32L57.89-21.32L57.89-21.32Q58.65-22.36 60.03-22.36L60.03-22.36L60.03-22.36Q61.41-22.36 61.41-21.05L61.41-21.05L61.41-21.05Q61.41-20.56 57.75-14.32L57.75-14.32L57.75-14.32Q54.10-8.07 53.68-6.49L53.68-6.49L53.68-6.49Q56.51-9.59 62.17-14.84L62.17-14.84L62.17-14.84Q70.66-22.70 73.35-22.70L73.35-22.70L73.35-22.70Q74.17-22.70 74.87-22.22L74.87-22.22L74.87-22.22Q75.56-21.74 75.56-21.15L75.56-21.15L75.56-21.15Q75.56-20.56 72.86-15.94L72.86-15.94L72.86-15.94Q70.24-11.18 69.97-10.28L69.97-10.28L69.97-10.28Q77.63-16.70 77.63-16.77L77.63-16.77L77.63-16.77Q84.11-21.80 86.94-21.80L86.94-21.80L86.94-21.80Q87.77-21.80 88.49-21.29L88.49-21.29L88.49-21.29Q89.22-20.77 89.22-20.08L89.22-20.08L89.22-20.08Q89.22-19.94 84.73-14.25L84.73-14.25L84.73-14.25Q80.25-8.56 79.69-4.90L79.69-4.90L79.69-4.90Q79.56-3.66 80.18-3.04L80.18-3.04L80.18-3.04Q80.80-2.42 82.42-2.42L82.42-2.42L82.42-2.42Q84.04-2.42 87.18-4.66L87.18-4.66L87.18-4.66Q90.32-6.90 93.56-10.70L93.56-10.70L93.56-10.70Q94.81-12.08 95.25-12.08L95.25-12.08L95.25-12.08Q95.70-12.08 95.70-11.73L95.70-11.73L95.70-11.73Q95.70-11.25 95.08-10.63L95.08-10.63L95.08-10.63Q91.70-6.56 87.80-3.69L87.80-3.69L87.80-3.69Q83.90-0.83 81.70-0.83ZM118.82-1.73L118.82-1.73L118.82-1.73Q112.75 2.97 109.92 2.97L109.92 2.97L109.92 2.97Q108.40 2.97 107.67 1.48L107.67 1.48L107.67 1.48Q106.95 0 106.95-1.73L106.95-1.73L106.95-1.73Q106.95-5.04 109.74-11.66L109.74-11.66L109.74-11.66Q112.54-18.29 115.09-18.29L115.09-18.29L115.09-18.29Q116.40-18.29 117.33-13.11L117.33-13.11L117.33-13.11Q118.27-7.94 119.23-5.59L119.23-5.59L119.23-5.59Q123.92-10.56 132.83-22.15L132.83-22.15L132.83-22.15Q144.00-36.85 147.66-38.23L147.66-38.23L147.66-38.23Q148.90-38.71 150.21-38.71L150.21-38.71L150.21-38.71Q151.52-38.71 152.39-38.16L152.39-38.16L152.39-38.16Q153.25-37.61 153.25-36.78L153.25-36.78L153.25-36.78Q153.25-35.60 151.25-35.40L151.25-35.40L151.25-35.40Q148.83-34.09 143.80-29.05L143.80-29.05L143.80-29.05Q138.76-24.15 135.72-19.87L135.72-19.87L135.72-19.87Q128.34-9.59 120.54-3.11L120.54-3.11L120.54-3.11Q124.41 2.62 132.69 2.62L132.69 2.62L132.69 2.62Q133.58 2.62 135.38 2.48L135.38 2.48L135.38 2.48Q154.56 0.69 162.56-14.15L162.56-14.15L162.56-14.15Q165.81-20.08 165.81-25.88L165.81-25.88L165.81-25.88Q165.81-31.67 161.60-36.29L161.60-36.29L161.60-36.29Q158.22-40.09 154.25-40.99L154.25-40.99L154.25-40.99Q150.28-41.88 146.14-41.88L146.14-41.88L146.14-41.88Q135.52-41.88 126.55-36.98L126.55-36.98L126.55-36.98Q117.09-31.81 117.09-25.39L117.09-25.39L117.09-25.39Q117.09-23.67 118.02-22.56L118.02-22.56L118.02-22.56Q118.96-21.46 119.30-21.32L119.30-21.32L118.89-21.32L118.89-21.32Q117.09-21.67 115.71-23.12L115.71-23.12L115.71-23.12Q114.20-24.91 114.20-26.91L114.20-26.91L114.20-26.91Q114.20-33.81 122.85-38.78L122.85-38.78L122.85-38.78Q131.51-43.75 143.18-43.75L143.18-43.75L143.18-43.75Q148.56-43.75 154.22-42.50L154.22-42.50L154.22-42.50Q159.87-41.26 164.50-36.57L164.50-36.57L164.50-36.57Q169.81-31.05 169.81-24.08L169.81-24.08L169.81-24.08Q169.81-18.91 166.77-13.39L166.77-13.39L166.77-13.39Q161.53-3.86 151.11 0.55L151.11 0.55L151.11 0.55Q142.76 4.07 133.10 4.07L133.10 4.07L133.10 4.07Q123.44 4.07 118.82-1.73ZM109.43-2.00L109.43-2.00L109.43-2.00Q109.43 0.14 110.26 1.73L110.26 1.73L110.26 1.73Q113.23 0.41 117.44-3.73L117.44-3.73L117.44-3.73Q115.44-7.04 114.92-8.94L114.92-8.94L114.92-8.94Q114.40-10.83 114.20-13.94L114.20-13.94L114.20-13.94Q109.43-7.11 109.43-2.00ZM119.30-21.32L119.30-21.32L119.30-21.32Q119.37-21.32 119.44-21.39L119.44-21.39L119.44-21.39Q119.44-21.25 119.40-21.25L119.40-21.25L119.40-21.25Q119.37-21.25 119.30-21.32ZM192.37-20.63L192.37-20.63L193.34-20.84L193.34-20.84Q194.10-20.84 194.79-20.22L194.79-20.22L194.79-20.22Q195.48-19.60 195.48-19.25L195.48-19.25L195.48-19.25Q195.48-18.91 191.20-12.59L191.20-12.59L191.20-12.59Q186.92-6.28 186.92-3.80L186.92-3.80L186.92-3.80Q186.92-3.59 186.99-3.38L186.99-3.38L186.99-3.38Q187.34-1.79 188.51-1.79L188.51-1.79L188.51-1.79Q192.10-1.79 201.62-13.66L201.62-13.66L201.62-13.66Q201.82-13.94 202.10-13.94L202.10-13.94L202.10-13.94Q202.38-13.94 202.38-13.42L202.38-13.42L202.38-13.42Q202.38-12.90 201.76-12.08L201.76-12.08L201.76-12.08Q192.92-0.28 188.30-0.28L188.30-0.28L188.30-0.28Q187.68-0.28 187.13-0.48L187.13-0.48L187.13-0.48Q184.09-1.66 184.09-5.04L184.09-5.04L184.09-5.04Q184.09-6.21 184.37-7.38L184.37-7.38L180.09-3.24L180.09-3.24Q176.02 0.35 174.19 0.35L174.19 0.35L174.19 0.35Q172.36 0.35 170.71-0.83L170.71-0.83L170.71-0.83Q168.84-2.21 168.84-4.49L168.84-4.49L168.84-4.49Q168.84-9.52 175.88-16.53L175.88-16.53L175.88-16.53Q182.92-23.53 188.78-23.53L188.78-23.53L188.78-23.53Q191.06-23.53 191.82-21.94L191.82-21.94L191.82-21.94Q192.03-21.39 192.16-21.01L192.16-21.01L192.16-21.01Q192.30-20.63 192.37-20.63ZM171.74-3.66L171.74-3.66L171.74-3.66Q171.74-1.17 173.47-1.17L173.47-1.17L173.47-1.17Q177.47-1.17 184.37-9.94L184.37-9.94L191.68-20.01L191.68-20.01Q191.13-20.98 189.89-20.98L189.89-20.98L189.89-20.98Q185.68-20.98 178.71-14.46L178.71-14.46L178.71-14.46Q171.74-7.94 171.74-3.66ZM217.21 0.41L217.21 0.41L217.21 0.41Q216.87 0.48 215.73 0.48L215.73 0.48L215.73 0.48Q214.59 0.48 213.45-0.41L213.45-0.41L213.45-0.41Q212.31-1.31 212.31-2.73L212.31-2.73L212.31-2.73Q212.31-4.14 212.83-5.87L212.83-5.87L212.83-5.87Q213.35-7.59 213.56-8.49L213.56-8.49L213.56-8.49Q205.62 0.76 201.13 0.76L201.13 0.76L201.13 0.76Q198.31 0.76 198.03-2.76L198.03-2.76L198.03-2.76Q198.03-3.04 198.03-3.24L198.03-3.24L198.03-3.24Q198.03-6.21 201.62-11.25L201.62-11.25L201.62-11.25Q199.62-9.45 197.55-7.11L197.55-7.11L197.55-7.11Q197.27-6.83 196.86-6.83L196.86-6.83L196.86-6.83Q196.58-6.83 196.58-7.18L196.58-7.18L196.58-7.18Q196.58-7.52 197.20-8.35L197.20-8.35L206.72-19.53L206.72-19.53Q208.52-21.60 210.38-21.60L210.38-21.60L210.38-21.60Q212.24-21.60 212.24-20.36L212.24-20.36L212.24-20.36Q212.24-19.87 211.83-19.46L211.83-19.46L211.83-19.46Q209.07-16.91 204.90-10.97L204.90-10.97L204.90-10.97Q200.72-5.04 200.72-2.21L200.72-2.21L200.72-2.21Q200.72-0.97 201.55-0.97L201.55-0.97L201.55-0.97Q204.45-0.97 209.97-6.69L209.97-6.69L209.97-6.69Q211.90-8.63 217.14-15.21L217.14-15.21L217.14-15.21Q222.39-21.80 224.04-21.80L224.04-21.80L224.04-21.80Q226.53-21.80 226.53-19.87L226.53-19.87L226.53-19.87Q226.53-19.18 223.63-15.87L223.63-15.87L223.63-15.87Q219.70-11.11 217.63-8.11L217.63-8.11L217.63-8.11Q215.56-5.11 215.56-3.24L215.56-3.24L215.56-3.24Q215.56-1.38 216.59-1.38L216.59-1.38L216.59-1.38Q217.07-1.38 217.69-1.66L217.69-1.66L217.69-1.66Q222.46-3.73 229.08-11.32L229.08-11.32L229.08-11.32Q229.49-11.80 229.91-11.80L229.91-11.80L229.91-11.80Q230.32-11.80 230.32-11.35L230.32-11.35L230.32-11.35Q230.32-10.90 229.84-10.35L229.84-10.35L229.84-10.35Q226.87-6.90 222.87-3.42L222.87-3.42L222.87-3.42Q218.87 0.07 217.21 0.41ZM249.85-20.91L249.85-20.91L249.85-20.91Q257.58-33.47 260.61-33.47L260.61-33.47L260.61-33.47Q261.10-33.47 261.96-33.15L261.96-33.15L261.96-33.15Q262.82-32.84 262.82-32.22L262.82-32.22L262.82-32.22Q262.82-31.88 262.48-31.33L262.48-31.33L262.48-31.33Q256.96-24.56 254.26-21.18L254.26-21.18L254.26-21.18Q246.12-10.90 245.29-6.42L245.29-6.42L245.29-6.42Q245.09-5.45 245.09-4.49L245.09-4.49L245.09-4.49Q245.09-1.38 247.64-1.38L247.64-1.38L247.64-1.38Q252.75-1.38 260.96-10.83L260.96-10.83L260.96-10.83Q261.65-11.52 262.13-11.63L262.13-11.63L262.13-11.63Q262.61-11.73 262.61-11.39L262.61-11.39L262.61-11.39Q262.61-11.04 262.20-10.56L262.20-10.56L262.20-10.56Q254.20-0.97 247.99 0.14L247.99 0.14L247.99 0.14Q247.64 0.21 247.02 0.21L247.02 0.21L247.02 0.21Q244.88 0.21 243.81-1.28L243.81-1.28L243.81-1.28Q242.74-2.76 242.74-4.49L242.74-4.49L242.74-4.49Q242.74-6.42 243.50-8.76L243.50-8.76L237.91-3.17L237.91-3.17Q234.12 0.35 231.94 0.35L231.94 0.35L231.94 0.35Q229.77 0.35 228.32-0.83L228.32-0.83L228.32-0.83Q226.60-2.14 226.60-4.49L226.60-4.49L226.60-4.49Q226.60-9.52 233.63-16.53L233.63-16.53L233.63-16.53Q240.67-23.53 246.54-23.53L246.54-23.53L246.54-23.53Q248.47-23.53 249.23-22.49L249.23-22.49L249.23-22.49Q249.50-22.15 249.85-20.91ZM229.49-3.66L229.49-3.66L229.49-3.66Q229.49-1.17 231.22-1.17L231.22-1.17L231.22-1.17Q234.19-1.17 241.09-9.32L241.09-9.32L241.09-9.32Q242.33-10.76 249.37-20.15L249.37-20.15L249.37-20.15Q248.88-20.98 247.71-20.98L247.71-20.98L247.71-20.98Q243.43-20.98 236.46-14.46L236.46-14.46L236.46-14.46Q229.49-7.94 229.49-3.66Z" fill="#11cbd7"></path></g></g><style>text {
  font-size: 64px;
  font-family: Arial Black;
  dominant-baseline: central;
  text-anchor: middle;
}</style></svg>